<svg xmlns="http://www.w3.org/2000/svg" width="32" height="32.306" viewBox="0 0 32 32.306">
  <g id="magnifyingglass" opacity="0.76">
    <path id="magnifyingglass-2" data-name="magnifyingglass" d="M13.068,26.247a13.027,13.027,0,0,0,7.6-2.447l8.055,8.055a1.938,1.938,0,0,0,1.394.561,1.948,1.948,0,0,0,1.342-3.3l-8-8.021a13.06,13.06,0,1,0-10.383,5.149Zm0-2.821A10.314,10.314,0,0,1,2.821,13.179,10.314,10.314,0,0,1,13.068,2.931,10.314,10.314,0,0,1,23.316,13.179,10.314,10.314,0,0,1,13.068,23.426Z" transform="translate(0 -0.11)" fill="#fff"/>
  </g>
</svg>
